# xmcd CD database file
# Copyright (C) 1995 Ti Kan
#
# Track frame offsets:
#	162
#	8977
#	14277
#	24865
#	37315
#	46265
#	58690
#	65327
#	78680
#	91890
#	104875
#	117052
#	132827
#	143915
#	158165
#	169890
#	182452
#	192327
#	199037
#	213002
#	229387
#	239337
#	255145
#	269352
#	282102
#
# Disc length: 3912 seconds
#
# Revision: 1
# Processed by: cddbd v1.5.1PL0 Copyright (c) Steve Scherf et al.
# Submitted via: NotifyCDPlayer(CDDB) 1.50beta6
#
DISCID=5a0f4619
DTITLE=Vladimir Vysotskij - Colected Songs Vol.1
DYEAR=1900
DGENRE=
TTITLE0=Communal Graves
TTITLE1=Hospital Song
TTITLE2=Stars
TTITLE3=Phisicians' March
TTITLE4=Archeological Students Song
TTITLE5=Skaters' Song
TTITLE6=Sentimental Boxer
TTITLE7=Song about a Priend
TTITLE8=Peak
TTITLE9=Mountain-climbing Girl
TTITLE10=Rarewell to the Mountains
TTITLE11=Cosmic Scoundrel's March
TTITLE12=Song about an Old House
TTITLE13=Evil Spirts
TTITLE14=Parody of a Bad Detective Story
TTITLE15=Indian Summer
TTITLE16=My Friend has Left for Magadan
TTITLE17=Sail
TTITLE18=Song about New Times
TTITLE19=Stroks
TTITLE20=Funeral Attire
TTITLE21=About Unhappy Forest Dwellers
TTITLE22=The Genies' Song
TTITLE23=Song about Prophetic Oleg
TTITLE24=Song about Prophetic Cassandra
EXTD=from 1967
EXTT0=
EXTT1=
EXTT2=
EXTT3=
EXTT4=
EXTT5=
EXTT6=
EXTT7=
EXTT8=
EXTT9=
EXTT10=
EXTT11=
EXTT12=
EXTT13=
EXTT14=
EXTT15=
EXTT16=
EXTT17=
EXTT18=
EXTT19=
EXTT20=
EXTT21=
EXTT22=
EXTT23=
EXTT24=
PLAYORDER=
